<svg xmlns="http://www.w3.org/2000/svg" viewBox="0 0 140.94 110.01"><defs><style>.cls-10{fill: rgb(84, 9, 136);}.cls-10,.cls-2{fill-rule:evenodd;}.cls-2{fill:#fff;}.cls-3{fill:#010101;}</style></defs><g id="Слой_2" data-name="Слой 2"><g id="Начало_игры" data-name="Начало игры"><g id="Гора_подарков" data-name="Гора подарков"><polygon class="cls-10" points="118.95 110.01 0 105.55 12.73 31.56 131.69 36.01 118.95 110.01 118.95 110.01"/><polygon class="cls-10" points="140.94 20.85 8.78 15.9 3.48 46.73 135.63 51.68 140.94 20.85 140.94 20.85"/><path class="cls-2" d="M7.3,63.11l3.34-19.4,119,4.45-3.66,21.31c-6.82,2.7-14.7.38-17-7.93-7.13,8.2-18.75,9.1-24.44-.67-8,10.64-22.49,6.82-23.84-2.72-3,8.09-15.82,12.2-24.42,1.42C29,67.14,16.72,67.65,13.74,56.74A17.92,17.92,0,0,1,7.3,63.11Z"/><path class="cls-2" d="M119,110,0,105.55,3.31,86.29A11.71,11.71,0,0,1,10,94.35c7.14-8.2,18.75-9.1,24.45.67,8-10.64,22.48-6.82,23.84,2.72,3-8.09,15.81-12.2,24.41-1.42,7.21-7.57,19.53-8.08,22.52,2.83,4.39-7.09,11.12-9.35,16.88-7.47L119,110Z"/><path class="cls-3" d="M135.67,50.54a1.14,1.14,0,0,1-.08,2.28l-132.15-5a1.14,1.14,0,1,1,.08-2.28l132.15,4.95Z"/><path class="cls-3" d="M58.44,108.07a1.15,1.15,0,0,1-2.17-.74c2.84-8.28,7.37-29.07,10.84-49,3-17.09,5.14-33.49,4.77-40.71a1.14,1.14,0,0,1,2.28-.12c.38,7.42-1.81,24-4.8,41.21-3.48,20-8,41-10.92,49.34Z"/><path class="cls-3" d="M71.42,18.7c-.06-.05-1.09-.35-2.75-.94-4.48-1.56-12.54-4.38-17.2-7.37C48.26,8.34,46.54,6.11,48,3.83l0-.07a3.77,3.77,0,0,1,.46-.54,4.61,4.61,0,0,1,3.82-1.09A16.42,16.42,0,0,1,59.19,5c3.43,2.2,8,5.95,13.87,12.11a1.15,1.15,0,0,1-1.64,1.6ZM52.7,8.47c3.94,2.52,10.57,5,15.08,6.56A65.45,65.45,0,0,0,58,6.91,14.44,14.44,0,0,0,52.1,4.4a2.47,2.47,0,0,0-2,.46,1.77,1.77,0,0,0-.14.17l0,0c-.54.85.72,2.07,2.79,3.4Z"/><path class="cls-3" d="M72.57,16.53c.1,0,.39-.58,1.14-1.55A86.36,86.36,0,0,1,80.51,7C85.93,1.56,92.82-3,98.23,2.41a3.58,3.58,0,0,1,.91,1.78,4.68,4.68,0,0,1-.2,2.46,7.64,7.64,0,0,1-1.87,2.82c-2.85,2.88-9.45,6.33-23.82,9.23a1.16,1.16,0,0,1-1.35-.89,1.14,1.14,0,0,1,.67-1.27Zm9.56-7.89A81.94,81.94,0,0,0,76,15.78c11.62-2.62,17.07-5.51,19.46-7.92a5.46,5.46,0,0,0,1.33-2,2.31,2.31,0,0,0,.12-1.26A1.15,1.15,0,0,0,96.62,4C92.54,0,86.77,4,82.13,8.64Z"/><path class="cls-3" d="M65.21,40a1.15,1.15,0,0,1-1.62.13,1.14,1.14,0,0,1-.13-1.61,35.59,35.59,0,0,0,5.23-8.83,47.2,47.2,0,0,0,3.2-10.83,1.14,1.14,0,1,1,2.25.36,49.08,49.08,0,0,1-3.35,11.37A38.07,38.07,0,0,1,65.21,40Z"/><path class="cls-3" d="M74.24,48.54a1.14,1.14,0,0,1-1.74-1.48c1.83-2.16,2.64-7,2.57-12.24C75,29.24,73.93,23.28,72,19.52a1.14,1.14,0,1,1,2-1c2.09,4.07,3.25,10.42,3.33,16.31s-.92,11.15-3.12,13.75Z"/></g></g></g></svg>
