<svg xmlns="http://www.w3.org/2000/svg" viewBox="0 0 103.41 104.22"><defs><style>.cls-3{fill:#e89125;}.cls-2{fill:#131114;}</style></defs><g id="Слой_2" data-name="Слой 2"><g id="Начало_игры" data-name="Начало игры"><circle class="cls-3" cx="53.07" cy="54.14" r="50.08"/><path class="cls-2" d="M51.61,103.41a51.92,51.92,0,1,1,8.24-.66A52.2,52.2,0,0,1,51.61,103.41ZM51.78,3.25A48.45,48.45,0,1,0,90.94,80.13h0A48.42,48.42,0,0,0,51.78,3.25Z"/><path class="cls-2" d="M68,73.2a1.64,1.64,0,0,1-1.15-.47C51.77,57.63,41.94,18.81,41.52,17.17a1.63,1.63,0,0,1,3.16-.79c.1.39,10,39.59,24.48,54A1.63,1.63,0,0,1,68,73.2Z"/><path class="cls-2" d="M48.08,83.16l-.32,0a1.62,1.62,0,0,1-1.27-1.91c1-5.15,10.21-50.45,15.39-55.63a1.63,1.63,0,0,1,2.3,2.3c-3.38,3.38-10.69,34.89-14.5,54A1.63,1.63,0,0,1,48.08,83.16Z"/><path class="cls-2" d="M33.14,58.25a1.63,1.63,0,0,1-.73-3.08C33.65,54.56,62.82,40.06,78,40.06a1.63,1.63,0,1,1,0,3.25c-14.39,0-43.81,14.62-44.1,14.77A1.59,1.59,0,0,1,33.14,58.25Z"/><path class="cls-2" d="M78,58.25C72.9,58.25,35,41.54,27.5,38.19a1.63,1.63,0,1,1,1.32-3C46,42.87,74.6,55,78,55a1.63,1.63,0,1,1,0,3.25Z"/></g></g></svg>
